<svg xmlns="http://www.w3.org/2000/svg" viewBox="0 0 206.12 142.7"><defs><style>.cls-1{fill:#11ea73}</style></defs><g id="Layer_2" data-name="Layer 2"><g id="图层_1" data-name="图层 1"><path class="cls-1" d="M15.86 63.43V15.86H0v79.26h15.86V63.43zM47.57 15.86h142.7V0H15.86v15.86h31.71zM47.57 47.57h15.86v15.86H47.57zM95.12 47.57h15.86v15.86H95.12zM110.98 95.12H15.86v15.86H126.84V95.12h-15.86zM126.84 110.98h15.86v15.86h-15.86zM142.69 126.84h15.86v15.86h-15.86zM142.69 47.57h15.86v15.86h-15.86zM158.55 110.98h15.86v15.86h-15.86zM174.41 95.12h15.86v15.86h-15.86zM190.27 15.86v79.26h15.85V15.86h-15.85z"/></g></g></svg>