<svg xmlns="http://www.w3.org/2000/svg" viewBox="0 0 206.12 142.7"><defs><style>.cls-1{fill:#11ea73}</style></defs><g id="Layer_2" data-name="Layer 2"><g id="图层_1" data-name="图层 1"><path class="cls-1" d="M15.86 95.14V31.71H0V126.86h15.86V95.14zM15.86 126.86v15.83h31.71v-15.83H15.86zM15.86 15.86h15.86v15.86H15.86zM47.57 111h15.86v15.86H47.57zM63.43 31.71H47.57v15.86H31.71v15.86h15.86v15.85h15.86V63.43h15.85V47.57H63.43V31.71zM63.43 15.86h15.85V0H31.71v15.86h31.72zM95.12 31.71h31.72V15.86H79.28v15.85h15.84zM95.12 63.43h15.86v15.86H95.12zM126.84 95.14H63.43V111H142.69V95.14h-15.85zM126.84 47.57h15.86v15.86h-15.86zM142.69 111h15.86v15.86h-15.86zM142.69 63.43h15.86v15.86h-15.86zM142.69 31.71h15.86v15.86h-15.86zM158.55 15.86h15.86V0h-47.57v15.86h31.71zM158.55 126.86v15.83h31.72v-15.83h-31.72zM158.55 47.57h15.86v15.86h-15.86zM174.41 15.86h15.86v15.86h-15.86zM190.27 31.71V126.86h15.85V31.71h-15.85z"/></g></g></svg>