<svg xmlns="http://www.w3.org/2000/svg" viewBox="0 0 237.82 142.7"><defs><style>.cls-1{fill:#11ea73}</style></defs><g id="Layer_2" data-name="Layer 2"><g id="图层_1" data-name="图层 1"><path class="cls-1" d="M15.86 95.14V15.86H0v111h15.86V95.14zM31.71 31.71v15.86h31.72V31.71H31.71zM47.57 15.86H158.55V0H15.86v15.86h31.71zM126.84 126.86H15.86v15.83h142.69v-15.83h-31.71zM174.41 79.28V63.43h15.86V47.57h-15.86V15.86h-15.86v111h15.86V95.14h15.86V79.28h-15.86zM190.27 95.14h15.86V111h-15.86zM190.27 31.71h15.86v15.86h-15.86z"/><path class="cls-1" d="M221.96 15.86h-15.84v15.85h15.84V111h-15.84v15.86h31.7V15.86h-15.86z"/></g></g></svg>