<svg width="32" height="25" viewBox="0 0 32 25" xmlns="http://www.w3.org/2000/svg"><g fill="none" fill-rule="evenodd"><path d="M11.448.279c-.62.308-1.129.828-1.53 1.503l-.003.003S8.662 3.895 7.4 6.06A331.67 331.67 0 0 0 5.633 9.1c-.249.426-.451.799-.61 1.08a9.14 9.14 0 0 1-.12.219l-2.281 1.127C.2 12.734-.707 15.828.594 18.45l1.502 3.01c1.31 2.617 4.336 3.764 6.758 2.566l2.409-1.19c.889.12 3.14.352 5.272.566 2.267.228 4.356.426 4.359.426.765.068 1.469-.026 2.078-.325l.034-.017a2.704 2.704 0 0 0 1.442-1.963c.155-.872-.044-1.798-.492-2.694l-8.233-16.51c-.441-.885-1.048-1.593-1.83-2.002a2.668 2.668 0 0 0-2.445-.037zM9.5 21.604l-1.288.605c-1.523.709-3.42.078-4.2-1.402l-1.674-3.191a2.922 2.922 0 0 1 1.353-4.012L4.983 13 9.5 21.604zm12.987-.149c-.048.198-.099.281-.322.409-.187.09-.51.167-.987.123.003 0-2.252-.237-4.823-.499a255.526 255.526 0 0 1-3.578-.371c-.498-.05-.922-.1-1.224-.141a8.293 8.293 0 0 0-.356-.043c-.017-.004-.034-.004-.044-.007l-.102-.034L6.5 11.863c.112-.218.488-.888.956-1.691C9.04 7.439 11.774 3.4 11.831 3.279c.251-.415.509-.626.685-.713.22-.09.295-.084.475-.004.173.087.468.342.75.901l8.478 16.84c.278.563.305.951.268 1.152z" fill="#75FCE8" fill-rule="nonzero"/><path stroke="#75FCE8" stroke-width="2" stroke-linecap="round" d="M26.662 3.54l-2.324 8.92M21.696 5.396l7.608 5.208"/></g></svg>